<svg id="Livello_1" data-name="Livello 1" xmlns="http://www.w3.org/2000/svg" viewBox="0 0 147.23 140.8"><defs><style>.cls-1{fill:#fff;}.cls-2,.cls-3{fill:#f2f2f2;}.cls-3{isolation:isolate;opacity:0.32;}.cls-4{fill:#a6192e;}.cls-5{fill:#aaabb0;}.cls-6{fill:#ffb8b8;}.cls-7{fill:#ccc;}.cls-8{fill:#2f2e41;}</style></defs><g id="Group_65" data-name="Group 65"><path id="Path_140" data-name="Path 140" class="cls-1" d="M36.54,29a6,6,0,1,1,6-6,6,6,0,0,1-6,6Zm0-11.86A5.83,5.83,0,1,0,42.37,23h0a5.84,5.84,0,0,0-5.83-5.83h0Z" transform="translate(-10.98 -0.57)"/><path id="Path_174" data-name="Path 174" class="cls-1" d="M125.63,29a6,6,0,1,1,6-6h0A6,6,0,0,1,125.63,29Zm0-11.86A5.83,5.83,0,1,0,131.45,23h0a5.83,5.83,0,0,0-5.82-5.83h0Z" transform="translate(-10.98 -0.57)"/><path id="Path_146" data-name="Path 146" class="cls-1" d="M147,15H15.61A4.62,4.62,0,0,0,11,19.56V69.67a4.6,4.6,0,0,0,4.63,4.58H147a4.6,4.6,0,0,0,4.64-4.58V19.56A4.62,4.62,0,0,0,147,15Zm4.09,54.69a4.05,4.05,0,0,1-4.09,4H15.61a4.07,4.07,0,0,1-4.09-4V19.56a4.08,4.08,0,0,1,4.09-4H147a4.07,4.07,0,0,1,4.09,4Z" transform="translate(-10.98 -0.57)"/><rect id="Rectangle_21" data-name="Rectangle 21" class="cls-2" x="7.7" y="34.57" width="18.68" height="13.07"/><rect id="Rectangle_30" data-name="Rectangle 30" class="cls-3" x="33.85" y="34.57" width="18.68" height="13.07"/><rect id="Rectangle_31" data-name="Rectangle 31" class="cls-2" x="60" y="34.57" width="18.68" height="13.07"/><rect id="Rectangle_32" data-name="Rectangle 32" class="cls-3" x="86.15" y="34.57" width="18.68" height="13.07"/><rect id="Rectangle_33" data-name="Rectangle 33" class="cls-3" x="7.7" y="53.71" width="18.68" height="13.07"/><rect id="Rectangle_34" data-name="Rectangle 34" class="cls-2" x="33.85" y="53.71" width="18.68" height="13.07"/><rect id="Rectangle_35" data-name="Rectangle 35" class="cls-3" x="60" y="53.71" width="18.68" height="13.07"/><rect id="Rectangle_36" data-name="Rectangle 36" class="cls-3" x="86.15" y="53.71" width="18.68" height="13.07"/><path id="Path_168" data-name="Path 168" class="cls-4" d="M51.05,67.28l-4.41-6.09,1.2-.87L51.22,65,64.13,51.72l1.06,1Z" transform="translate(-10.98 -0.57)"/><path id="Path_176" data-name="Path 176" class="cls-4" d="M77.43,48.13,73,42l1.2-.86,3.38,4.66L90.51,32.57l1.06,1Z" transform="translate(-10.98 -0.57)"/><rect id="Rectangle_38" data-name="Rectangle 38" class="cls-1" x="25.32" width="0.32" height="22.41"/><rect id="Rectangle_40" data-name="Rectangle 40" class="cls-1" x="114.64" width="0.32" height="22.41"/><path id="Path_238" data-name="Path 238" class="cls-4" d="M25.14,48.13,20.73,42l1.2-.86,3.38,4.66L38.22,32.57l1.06,1Z" transform="translate(-10.98 -0.57)"/><rect id="Rectangle_32-2" data-name="Rectangle 32-2" class="cls-3" x="114.07" y="34.57" width="18.68" height="13.07"/><rect id="Rectangle_36-2" data-name="Rectangle 36-2" class="cls-3" x="114.07" y="53.71" width="18.68" height="13.07"/><g id="Group_3" data-name="Group 3"><g id="Group_7" data-name="Group 7"><path id="Path_149" data-name="Path 149" class="cls-2" d="M83,141a8.3,8.3,0,0,1-.86-3.23,22.49,22.49,0,0,1,1.66-10,20,20,0,0,0-.8-16l.2-.12a17.91,17.91,0,0,1,1.66,4.72A20.51,20.51,0,0,1,84,127.86c-3.27,8.79-.84,13-.81,13Z" transform="translate(-10.98 -0.57)"/><circle id="Ellipse_19" data-name="Ellipse 19" class="cls-2" cx="70.77" cy="109.23" r="1.49"/><circle id="Ellipse_20" data-name="Ellipse 20" class="cls-2" cx="75.48" cy="114.74" r="1.49"/><circle id="Ellipse_21" data-name="Ellipse 21" class="cls-2" cx="72.27" cy="118.41" r="1.49"/><circle id="Ellipse_22" data-name="Ellipse 22" class="cls-2" cx="76.17" cy="121.51" r="1.49"/><circle id="Ellipse_23" data-name="Ellipse 23" class="cls-2" cx="71.12" cy="126.34" r="1.49"/><path id="Path_150" data-name="Path 150" class="cls-2" d="M83.93,141s-1.49-3.67,3-6.42Z" transform="translate(-10.98 -0.57)"/><path id="Path_151" data-name="Path 151" class="cls-2" d="M82.1,141s-.68-3.91-5.94-3.87Z" transform="translate(-10.98 -0.57)"/></g><path id="Path_88" data-name="Path 88" class="cls-5" d="M157.87,141.37H69.33a.32.32,0,0,1,0-.64h88.59a.32.32,0,1,1,0,.64Z" transform="translate(-10.98 -0.57)"/><g id="Group_8" data-name="Group 8"><path id="Path_200" data-name="Path 200" class="cls-6" d="M132.39,91l.38-.08,5.11-10.39-1.56-2.34,3.22-2.81,4.06,5-8.26,12a2.45,2.45,0,1,1-3.23-1.24l.28-.11Z" transform="translate(-10.98 -0.57)"/><path id="Path_201" data-name="Path 201" class="cls-7" d="M141.12,76.82a1.08,1.08,0,0,1-.24.18l-5.23,3a1,1,0,0,1-1.43-.38h0a.56.56,0,0,1-.05-.08l-2.54-5.37a1.05,1.05,0,0,1,.36-1.32l3.24-2.2a1.06,1.06,0,0,1,1.34.12l4.53,4.55A1.06,1.06,0,0,1,141.12,76.82Z" transform="translate(-10.98 -0.57)"/><path id="Path_202" data-name="Path 202" class="cls-6" d="M148.46,136.34l-2.76.75-4.21-10.29,4.07-1.11Z" transform="translate(-10.98 -0.57)"/><path id="Path_203" data-name="Path 203" class="cls-8" d="M143.52,136.84l5.32-1.45.91,3.35-8.68,2.36a3.47,3.47,0,0,1,2.45-4.26Z" transform="translate(-10.98 -0.57)"/><path id="Path_204" data-name="Path 204" class="cls-6" d="M124.85,138.45H122l-1.36-11h4.22Z" transform="translate(-10.98 -0.57)"/><path id="Path_205" data-name="Path 205" class="cls-8" d="M120,137.63h5.52v3.47h-9a3.48,3.48,0,0,1,3.48-3.47Z" transform="translate(-10.98 -0.57)"/><circle id="Ellipse_33" data-name="Ellipse 33" class="cls-6" cx="116.89" cy="60.71" r="5.73"/><path id="Path_206" data-name="Path 206" class="cls-8" d="M124.68,130.58h-3.91a1.06,1.06,0,0,1-1-1c-1.17-18.53-.49-31.82,2.14-41.83l0-.12.22-.53a1,1,0,0,1,1-.66h8a1.06,1.06,0,0,1,.8.37L133,88.09l.06.08c4.93,6.87,9.34,20.3,14.46,38.35a1.05,1.05,0,0,1-.69,1.29l-4.21,1.35a1.06,1.06,0,0,1-1.26-.55L130.47,106a.82.82,0,0,0-1.55.24l-3.2,23.43A1.07,1.07,0,0,1,124.68,130.58Z" transform="translate(-10.98 -0.57)"/><path id="Path_207" data-name="Path 207" class="cls-7" d="M132.58,88.19h0l-9.77-.31a1.05,1.05,0,0,1-1-.93c-1.24-10,2.16-12.71,3.67-13.4a.79.79,0,0,0,.47-.64l.14-1a1.07,1.07,0,0,1,.2-.51A12,12,0,0,1,133.61,67a1,1,0,0,1,1.21.84h0a.43.43,0,0,1,0,.05l.2,1.51a.81.81,0,0,0,.17.39c5,6.49-.57,16.07-1.73,17.92h0A1,1,0,0,1,132.58,88.19Z" transform="translate(-10.98 -0.57)"/><path id="Path_239" data-name="Path 239" class="cls-4" d="M129.51,100.72l-7.38,1.42-.28-1.46,5.65-1.08-6.57-17.32,1.39-.52Z" transform="translate(-10.98 -0.57)"/><path id="Path_208" data-name="Path 208" class="cls-8" d="M139.44,61.92a22.87,22.87,0,0,0-4.56-4.76,13.32,13.32,0,0,0-4.83-2.56,7.47,7.47,0,0,0-5.36.48c-1.62.86-3.3,2.57-3.31,4.41,0,.59.15,1.38.73,1.28l.16,0,4.21-.85,1.79,6.21a1.19,1.19,0,0,0,1.19,1.21,1.13,1.13,0,0,0,.75-.25,13.5,13.5,0,0,0,.62-1.28.24.24,0,0,1,.3-.15l.11.08.33.41a.45.45,0,0,0,.54.14L139,63.46c.31-.13.67-.3.76-.63A1.17,1.17,0,0,0,139.44,61.92Z" transform="translate(-10.98 -0.57)"/><path id="Path_211" data-name="Path 211" class="cls-6" d="M131.67,102.44a2.51,2.51,0,0,0,.61-3.5,3,3,0,0,0-.28-.34l1.81-21.91-5.4.74-.1,21.29a2.52,2.52,0,0,0,3.36,3.72Z" transform="translate(-10.98 -0.57)"/><path id="Path_212" data-name="Path 212" class="cls-7" d="M134.17,79.85a1,1,0,0,1-.3,0l-5.8-1.7a1.06,1.06,0,0,1-.71-1.31l0-.08,2.15-5.55a1,1,0,0,1,1.2-.64l3.83.83a1.06,1.06,0,0,1,.83,1.06l-.18,6.41a1.06,1.06,0,0,1-1.05,1Z" transform="translate(-10.98 -0.57)"/></g></g></g></svg>